HIERARCHY
ROOT SpineBase
{
  OFFSET 0.000000 0.000000 0.000000
  CHANNELS 6 Xposition Yposition Zposition Zrotation Xrotation Yrotation
  JOINT SpineMid
  {
    OFFSET 0.000000 26.266022 0.000000
    CHANNELS 3 Zrotation Xrotation Yrotation
    JOINT SpineShoulder
    {
      OFFSET 0.047655 19.669831 -0.522552
      CHANNELS 3 Zrotation Xrotation Yrotation
      JOINT Neck
      {
        OFFSET -0.013203 6.542734 -0.424017
        CHANNELS 3 Zrotation Xrotation Yrotation
        JOINT Head
        {
          OFFSET 1.946983 11.544876 -0.378076
          CHANNELS 3 Zrotation Xrotation Yrotation
          End Site
          {
            OFFSET 0 0 0
          }
        }
      }
      JOINT ShoulderLeft
      {
        OFFSET -11.553166 -1.803835 -8.331800
        CHANNELS 3 Zrotation Xrotation Yrotation
        JOINT ElbowLeft
        {
          OFFSET -4.141008 -21.940544 -2.945292
          CHANNELS 3 Zrotation Xrotation Yrotation
          JOINT WristLeft
          {
            OFFSET 2.138338 -21.712824 -6.080828
            CHANNELS 3 Zrotation Xrotation Yrotation
            JOINT HandLeft
            {
              OFFSET 1.053599 -6.501107 -2.648125
              CHANNELS 3 Zrotation Xrotation Yrotation
              JOINT HandTipLeft
              {
                OFFSET 1.463388 -5.152749 -0.205330
                CHANNELS 3 Zrotation Xrotation Yrotation
                End Site
                {
                  OFFSET 0 0 0
                }
              }
              JOINT ThumbLeft
              {
                OFFSET 1.792136 -0.041579 1.283611
                CHANNELS 3 Zrotation Xrotation Yrotation
                End Site
                {
                  OFFSET 0 0 0
                }
              }
            }
          }
        }
      }
      JOINT ShoulderRight
      {
        OFFSET 12.001496 -3.330733 3.760841
        CHANNELS 3 Zrotation Xrotation Yrotation
        JOINT ElbowRight
        {
          OFFSET 3.131497 -21.767231 2.907611
          CHANNELS 3 Zrotation Xrotation Yrotation
          JOINT WristRight
          {
            OFFSET 6.451253 -21.153461 -5.287339
            CHANNELS 3 Zrotation Xrotation Yrotation
            JOINT HandRight
            {
              OFFSET 1.460618 -5.893987 -3.399771
              CHANNELS 3 Zrotation Xrotation Yrotation
              JOINT HandTipRight
              {
                OFFSET 0.357328 -4.607094 -3.059427
                CHANNELS 3 Zrotation Xrotation Yrotation
                End Site
                {
                  OFFSET 0 0 0
                }
              }
              JOINT ThumbRight
              {
                OFFSET 2.456181 -0.103567 -3.301595
                CHANNELS 3 Zrotation Xrotation Yrotation
                End Site
                {
                  OFFSET 0 0 0
                }
              }
            }
          }
        }
      }
    }
  }
  JOINT HipLeft
  {
    OFFSET -5.373824 1.075435 -5.191936
    CHANNELS 3 Zrotation Xrotation Yrotation
    JOINT KneeLeft
    {
      OFFSET -5.262549 -33.906292 -0.532912
      CHANNELS 3 Zrotation Xrotation Yrotation
      JOINT AnkleLeft
      {
        OFFSET -3.083402 -30.208368 6.103251
        CHANNELS 3 Zrotation Xrotation Yrotation
        JOINT FootLeft
        {
          OFFSET 5.228310 -8.890649 0.849192
          CHANNELS 3 Zrotation Xrotation Yrotation
          End Site
          {
            OFFSET 0 0 0
          }
        }
      }
    }
  }
  JOINT HipRight
  {
    OFFSET 5.113207 0.349104 -0.693169
    CHANNELS 3 Zrotation Xrotation Yrotation
    JOINT KneeRight
    {
      OFFSET -2.704157 -32.234623 1.779474
      CHANNELS 3 Zrotation Xrotation Yrotation
      JOINT AnkleRight
      {
        OFFSET -2.816260 -32.904122 6.014170
        CHANNELS 3 Zrotation Xrotation Yrotation
        JOINT FootRight
        {
          OFFSET -3.596982 -6.903262 -4.022481
          CHANNELS 3 Zrotation Xrotation Yrotation
          End Site
          {
            OFFSET 0 0 0
          }
        }
      }
    }
  }
}
MOTION
Frames: 10
Frame Time: 0.033333
17.825016 72.129946 360.756905 -0.000000 0.000000 -23.218550 -0.000000 0.000000 23.218550 -0.000000 0.000000 0.000000 -0.000000 0.000000 0.000000 0.000000 0.000000 0.000000 -0.000000 0.000000 0.000000 -0.000000 0.000000 0.000000 -0.000000 0.000000 0.000000 -0.000000 0.000000 0.000000 0.000000 0.000000 0.000000 0.000000 0.000000 0.000000 -0.000000 0.000000 0.000000 -0.000000 0.000000 0.000000 -0.000000 0.000000 0.000000 -0.000000 0.000000 0.000000 0.000000 0.000000 0.000000 0.000000 0.000000 0.000000 -0.000000 0.000000 23.218550 -0.000000 0.000000 0.000000 -0.000000 0.000000 0.000000 0.000000 0.000000 0.000000 -0.000000 0.000000 23.218550 -0.000000 0.000000 0.000000 -0.000000 0.000000 0.000000 0.000000 0.000000 0.000000
17.815302 72.140937 360.689746 0.028486 0.056467 -23.590457 -0.003508 -0.063148 23.590441 -0.000000 0.000000 0.000000 -0.000000 0.000000 0.000000 0.000000 0.000000 0.000000 -0.000000 0.000000 0.000000 -0.000000 0.000000 0.000000 0.092078 -4.725543 -0.813539 -0.566589 5.680855 1.150084 0.000000 0.000000 0.000000 0.000000 0.000000 0.000000 -0.000000 0.000000 0.000000 -0.000000 0.000000 0.000000 -0.968197 2.420683 1.167095 2.154776 -1.373313 -1.802373 0.000000 0.000000 0.000000 0.000000 0.000000 0.000000 -0.003508 -0.063148 23.590441 1.202700 -0.045280 0.248344 3.386944 4.625081 2.647673 0.000000 0.000000 0.000000 -0.003508 -0.063148 23.590441 -0.000000 0.000000 0.000000 14.745007 16.669230 -19.037170 0.000000 0.000000 0.000000
17.813092 72.154168 360.621318 0.068496 0.115316 -23.925420 -0.015844 -0.133185 23.925332 -0.000000 0.000000 0.000000 -0.000000 0.000000 0.000000 0.000000 0.000000 0.000000 -0.000000 0.000000 0.000000 -0.485841 0.840058 0.221995 0.490477 -9.545947 -1.689560 -1.129704 10.493337 2.188044 0.000000 0.000000 0.000000 0.000000 0.000000 0.000000 -0.000000 0.000000 0.000000 -0.000000 0.000000 0.000000 -1.677080 4.596851 2.132650 4.133343 -2.370851 -3.323913 0.000000 0.000000 0.000000 0.000000 0.000000 0.000000 -0.015844 -0.133185 23.925332 2.150201 -0.087275 0.445803 6.354890 9.242848 4.898059 0.000000 0.000000 0.000000 -0.015844 -0.133185 23.925332 -0.000000 0.000000 0.000000 28.643447 24.601629 -35.484808 0.000000 0.000000 0.000000
17.818386 72.169638 360.551621 0.120026 0.176583 -24.223987 -0.037005 -0.210282 24.223734 -0.000000 0.000000 0.000000 -0.000000 0.000000 0.000000 0.000000 0.000000 0.000000 -0.000000 0.000000 0.000000 -0.710946 1.114749 0.315144 0.513581 -13.029108 -2.295167 -1.641003 14.396244 3.078577 0.000000 0.000000 0.000000 0.000000 0.000000 0.000000 -0.000000 0.000000 0.000000 -0.000000 0.000000 0.000000 -2.077175 6.488544 2.844885 5.898850 -2.936607 -4.561634 0.000000 0.000000 0.000000 0.000000 0.000000 0.000000 -0.037005 -0.210282 24.223734 2.851720 -0.128626 0.593976 8.603560 13.458706 6.698715 0.000000 0.000000 0.000000 -0.037005 -0.210282 24.223734 -0.000000 0.000000 0.000000 37.211403 27.261656 -45.411260 0.000000 0.000000 0.000000
17.831183 72.187347 360.480655 0.183093 0.240311 -24.486665 -0.067022 -0.294585 24.486109 -0.000000 0.000000 0.000000 -0.000000 0.000000 0.000000 0.000000 0.000000 0.000000 0.911054 -0.298372 -0.063734 -1.836821 1.588974 0.468802 0.426481 -15.649102 -2.748416 -2.051479 17.381623 3.782411 0.000000 0.000000 0.000000 0.000000 0.000000 0.000000 0.296524 0.777237 0.149495 -0.146436 0.126507 0.084852 -2.244689 7.171570 2.987736 7.409480 -3.034687 -5.527719 0.000000 0.000000 0.000000 0.000000 0.000000 0.000000 -0.067022 -0.294585 24.486109 3.315068 -0.171267 0.694228 9.925316 16.945837 8.083756 0.000000 0.000000 0.000000 -0.067022 -0.294585 24.486109 -0.794189 -0.218140 -0.127884 42.041123 28.432192 -50.177203 0.000000 0.000000 0.000000
17.851484 72.207295 360.408421 0.257727 0.306542 -24.713911 -0.105963 -0.386215 24.712865 -0.000000 0.000000 0.000000 -0.000000 0.000000 0.000000 0.000000 0.000000 0.000000 1.033565 -0.367155 -0.066283 -2.159999 1.738769 0.542634 0.249123 -17.421796 -3.047114 -2.314646 19.457482 4.259884 0.000000 0.000000 0.000000 0.000000 0.000000 0.000000 0.354383 0.730764 0.150270 -0.193676 0.674539 0.232663 -1.906495 7.910757 2.917581 8.620597 -2.650100 -6.245056 0.000000 0.000000 0.000000 0.000000 0.000000 0.000000 -0.105963 -0.386215 24.712865 3.546393 -0.216496 0.747603 10.197853 19.483087 9.123196 0.000000 0.000000 0.000000 -0.105963 -0.386215 24.712865 -0.901280 -0.244430 -0.145585 42.728162 28.897083 -51.047325 0.000000 0.000000 0.000000
17.879029 72.231855 360.325047 0.338775 0.405414 -24.965612 0.377788 0.184240 24.984437 0.061175 -0.047156 0.035297 -0.121008 -1.108759 0.100844 0.000000 0.000000 0.000000 0.366620 -0.962885 -0.089683 -2.543089 1.983860 0.598260 0.001331 -18.136832 -3.140028 -2.339094 20.512528 4.437809 0.000000 0.000000 0.000000 0.000000 0.000000 0.000000 -0.820570 -0.365065 -0.056520 0.137926 2.158844 0.618251 -1.420044 7.593607 2.498985 10.352971 0.944371 -7.043376 0.000000 0.000000 0.000000 0.000000 0.000000 0.000000 -0.136013 -0.510517 24.963808 3.474456 -0.450706 0.763609 6.467906 23.835793 11.618766 0.000000 0.000000 0.000000 -0.136013 -0.510517 24.963808 -0.835834 -0.393859 -0.121785 34.016303 28.310265 -41.798517 0.000000 0.000000 0.000000
17.914454 72.255750 360.238401 0.444571 0.466943 -25.264047 0.393370 0.159054 25.285504 0.077214 -0.075939 0.040955 -0.075877 -1.190536 0.114376 0.000000 0.000000 0.000000 0.268115 -0.986322 -0.097032 -2.777212 1.911517 0.650889 -0.286529 -16.907337 -2.834314 -1.305807 17.180614 3.074668 0.000000 0.000000 0.000000 0.000000 0.000000 0.000000 -0.945848 -0.365949 -0.065046 -0.014448 3.359689 1.021470 -0.012768 6.999740 1.506630 11.480152 0.772197 -7.788472 0.000000 0.000000 0.000000 0.000000 0.000000 0.000000 -0.202778 -0.612011 25.261153 3.384533 -0.341569 0.730714 0.497603 26.319149 14.227091 0.000000 0.000000 0.000000 -0.202778 -0.612011 25.261153 -1.026135 -0.339495 -0.161332 22.321179 24.691638 -28.626505 0.000000 0.000000 0.000000
17.950860 72.274811 360.162247 0.555003 0.520232 -25.466912 0.411000 0.115821 25.491081 0.101784 -0.106518 0.047103 -0.085926 -1.116143 0.102242 0.000000 0.000000 0.000000 0.062735 -0.890379 -0.111279 -2.918536 1.615451 0.690634 -0.573703 -15.943186 -2.583676 -2.899417 17.328263 3.617780 0.000000 0.000000 0.000000 0.000000 0.000000 0.000000 -1.078128 -0.340253 -0.073748 -0.137466 3.688620 1.155193 1.437246 7.058916 0.711800 9.893007 -1.214073 -7.109454 0.000000 0.000000 0.000000 0.000000 0.000000 0.000000 -0.277409 -0.708315 25.462678 3.119190 -0.334340 0.675052 1.467244 23.480223 12.504245 0.000000 0.000000 0.000000 -0.277409 -0.708315 25.462678 -1.170549 -0.187823 -0.199567 17.344804 22.055660 -22.832844 0.000000 0.000000 0.000000
17.996175 72.292573 360.101223 0.651914 0.564279 -25.428508 0.409301 0.055233 25.454464 0.112004 -0.135442 0.050715 -0.046342 -0.930142 0.075684 0.000000 0.000000 0.000000 -0.095223 -0.837000 -0.110125 -2.977444 1.305638 0.689526 -0.703866 -15.998668 -2.585276 -1.304318 18.174217 3.260643 0.000000 0.000000 0.000000 0.000000 0.000000 0.000000 -1.157748 -0.301475 -0.078676 -0.248863 4.090841 1.308351 3.461588 8.076015 -0.196419 7.418245 -4.826508 -6.102300 0.000000 0.000000 0.000000 0.000000 0.000000 0.000000 -0.346507 -0.789512 25.422910 2.507934 -0.181377 0.530275 3.178390 17.090984 9.017174 0.000000 0.000000 0.000000 -0.346507 -0.789512 25.422910 -1.311180 -0.015132 -0.238305 15.761387 20.898509 -20.823130 0.000000 0.000000 0.000000
